SplineFontDB: 3.2
FontName: KumikoPunch
FullName: KumikoPunch
FamilyName: KumikoPunch
Weight: Thin
Copyright: Copyright (c) 2025, Nagy Tibor <xnagytibor@protonmail.com>
UComments: "2025-7-6: Created with FontForge (http://fontforge.org)"
Version: 001.000
ItalicAngle: 0
UnderlinePosition: -100
UnderlineWidth: 50
Ascent: 800
Descent: 200
InvalidEm: 0
LayerCount: 2
Layer: 0 0 "Back" 1
Layer: 1 0 "Fore" 0
XUID: [1021 853 1156904377 14860631]
OS2Version: 0
OS2_WeightWidthSlopeOnly: 0
OS2_UseTypoMetrics: 1
CreationTime: 1751764603
ModificationTime: 1752528583
OS2TypoAscent: 0
OS2TypoAOffset: 1
OS2TypoDescent: 0
OS2TypoDOffset: 1
OS2TypoLinegap: 0
OS2WinAscent: 0
OS2WinAOffset: 1
OS2WinDescent: 0
OS2WinDOffset: 1
HheadAscent: 0
HheadAOffset: 1
HheadDescent: 0
HheadDOffset: 1
OS2Vendor: 'PfEd'
MarkAttachClasses: 1
DEI: 91125

StartChar: a
Encoding: 97 97 0
Width: 866
Flags: HW
LayerCount: 2
Fore
SplineSet
864.987304688 798.19921875 m 1
 864.987304688 -198.201171875 l 1
 2.07421875 300.001953125 l 1
 864.987304688 798.19921875 l 1
EndSplineSet
EndChar

StartChar: A
Encoding: 65 65 2
Width: 866
Flags: HW
LayerCount: 2
Fore
SplineSet
1.041015625 798.19921875 m 1
 863.954101562 300.001953125 l 1
 1.041015625 -198.201171875 l 1
 1.041015625 798.19921875 l 1
EndSplineSet
EndChar

StartChar: B
Encoding: 66 66 3
Width: 866
Flags: HW
LayerCount: 2
Fore
SplineSet
1.041015625 796.1171875 m 1
 287.48046875 300.001953125 l 1
 1.041015625 -196.119140625 l 1
 1.041015625 796.1171875 l 1
2.8349609375 797.165039062 m 1
 862.145507812 301.04296875 l 1
 289.274414062 301.04296875 l 1
 2.8349609375 797.165039062 l 1
289.274414062 298.961914062 m 1
 862.145507812 298.961914062 l 1
 2.8349609375 -197.16796875 l 1
 289.274414062 298.961914062 l 1
EndSplineSet
EndChar

StartChar: b
Encoding: 98 98 4
Width: 866
Flags: HW
LayerCount: 2
Fore
SplineSet
864.984375 796.1171875 m 1
 864.984375 -196.119140625 l 1
 578.544921875 300.001953125 l 1
 864.984375 796.1171875 l 1
863.190429688 797.165039062 m 1
 576.750976562 301.04296875 l 1
 3.8798828125 301.04296875 l 1
 863.190429688 797.165039062 l 1
576.750976562 298.961914062 m 1
 863.190429688 -197.16796875 l 1
 3.8798828125 298.961914062 l 1
 576.750976562 298.961914062 l 1
EndSplineSet
EndChar

StartChar: C
Encoding: 67 67 5
Width: 866
Flags: HW
LayerCount: 2
Fore
SplineSet
1.041015625 298.961914062 m 1
 288.078125 298.961914062 l 1
 431.596679688 50.376953125 l 1
 1.041015625 -198.201171875 l 1
 1.041015625 298.961914062 l 1
433.390625 548.580078125 m 1
 863.954101562 300.001953125 l 1
 433.390625 51.4169921875 l 1
 289.872070312 300.001953125 l 1
 433.390625 548.580078125 l 1
1.041015625 798.19921875 m 1
 431.596679688 549.62109375 l 1
 288.078125 301.04296875 l 1
 1.041015625 301.04296875 l 1
 1.041015625 798.19921875 l 1
EndSplineSet
EndChar

StartChar: D
Encoding: 68 68 6
Width: 866
Flags: HW
LayerCount: 2
Fore
SplineSet
1.041015625 464.862304688 m 1
 287.635742188 299.404296875 l 1
 287.635742188 -32.736328125 l 1
 1.041015625 -198.201171875 l 1
 1.041015625 464.862304688 l 1
1.041015625 798.19921875 m 1
 575.278320312 466.663085938 l 1
 288.67578125 301.198242188 l 1
 1.041015625 467.26171875 l 1
 1.041015625 798.19921875 l 1
577.352539062 465.467773438 m 1
 863.954101562 300.001953125 l 1
 289.716796875 -31.533203125 l 1
 289.716796875 299.404296875 l 1
 577.352539062 465.467773438 l 1
EndSplineSet
EndChar

StartChar: E
Encoding: 69 69 7
Width: 866
Flags: HW
LayerCount: 2
Fore
SplineSet
577.352539062 465.467773438 m 1
 863.954101562 300.001953125 l 1
 577.352539062 134.530273438 l 1
 290.750976562 300.001953125 l 1
 577.352539062 465.467773438 l 1
287.635742188 298.201171875 m 1
 287.635742188 -32.736328125 l 1
 1.041015625 -198.201171875 l 1
 1.041015625 132.736328125 l 1
 287.635742188 298.201171875 l 1
1.041015625 798.19921875 m 1
 287.635742188 632.733398438 l 1
 287.635742188 301.803710938 l 1
 1.041015625 467.26171875 l 1
 1.041015625 798.19921875 l 1
289.716796875 631.530273438 m 1
 575.278320312 466.663085938 l 1
 289.716796875 301.803710938 l 1
 289.716796875 631.530273438 l 1
289.716796875 298.201171875 m 1
 575.278320312 133.333984375 l 1
 289.716796875 -31.533203125 l 1
 289.716796875 298.201171875 l 1
1.041015625 464.862304688 m 1
 286.6015625 300.001953125 l 1
 1.041015625 135.135742188 l 1
 1.041015625 464.862304688 l 1
EndSplineSet
EndChar

StartChar: F
Encoding: 70 70 8
Width: 866
Flags: HW
LayerCount: 2
Fore
SplineSet
1.041015625 797.497070312 m 1
 498.536132812 300.001953125 l 1
 1.041015625 -197.5 l 1
 1.041015625 797.497070312 l 1
6.296875 795.165039062 m 1
 632.288085938 433.754882812 l 1
 499.998046875 301.463867188 l 1
 6.296875 795.165039062 l 1
499.998046875 298.541015625 m 1
 632.288085938 166.25 l 1
 6.296875 -195.166992188 l 1
 499.998046875 298.541015625 l 1
634.141601562 432.684570312 m 1
 863.954101562 300.001953125 l 1
 634.141601562 167.3203125 l 1
 501.458984375 300.001953125 l 1
 634.141601562 432.684570312 l 1
EndSplineSet
EndChar

StartChar: G
Encoding: 71 71 9
Width: 866
Flags: HW
LayerCount: 2
Fore
SplineSet
1.6533203125 797.844726562 m 1
 863.341796875 300.356445312 l 1
 183.7421875 118.260742188 l 1
 1.6533203125 797.844726562 l 1
858.67578125 296.9609375 m 1
 232.69921875 -64.4560546875 l 1
 184.28125 116.259765625 l 1
 858.67578125 296.9609375 l 1
1.041015625 792.1015625 m 1
 181.7421875 117.721679688 l 1
 1.041015625 69.3037109375 l 1
 1.041015625 792.1015625 l 1
182.28125 115.720703125 m 1
 230.838867188 -65.5263671875 l 1
 1.041015625 -198.201171875 l 1
 1.041015625 67.1552734375 l 1
 182.28125 115.720703125 l 1
EndSplineSet
EndChar

StartChar: H
Encoding: 72 72 10
Width: 866
Flags: HW
LayerCount: 2
Fore
SplineSet
183.7421875 481.744140625 m 1
 863.341796875 299.6484375 l 1
 1.6533203125 -197.846679688 l 1
 183.7421875 481.744140625 l 1
1.041015625 530.701171875 m 1
 181.7421875 482.283203125 l 1
 1.041015625 -192.103515625 l 1
 1.041015625 530.701171875 l 1
232.69921875 664.454101562 m 1
 858.67578125 303.043945312 l 1
 184.28125 483.745117188 l 1
 232.69921875 664.454101562 l 1
1.041015625 798.19921875 m 1
 230.838867188 665.524414062 l 1
 182.28125 484.284179688 l 1
 1.041015625 532.849609375 l 1
 1.041015625 798.19921875 l 1
EndSplineSet
EndChar

StartChar: I
Encoding: 73 73 11
Width: 866
Flags: HW
LayerCount: 2
Fore
SplineSet
1.041015625 798.19921875 m 1
 287.635742188 632.733398438 l 1
 287.635742188 300.600585938 l 1
 1.041015625 135.135742188 l 1
 1.041015625 798.19921875 l 1
288.67578125 298.806640625 m 1
 575.278320312 133.333984375 l 1
 1.041015625 -198.201171875 l 1
 1.041015625 132.736328125 l 1
 288.67578125 298.806640625 l 1
289.716796875 631.530273438 m 1
 863.954101562 300.001953125 l 1
 577.352539062 134.530273438 l 1
 289.716796875 300.600585938 l 1
 289.716796875 631.530273438 l 1
EndSplineSet
EndChar

StartChar: J
Encoding: 74 74 12
Width: 866
Flags: HW
LayerCount: 2
Fore
SplineSet
1.041015625 798.19921875 m 1
 858.67578125 303.043945312 l 1
 1.041015625 532.849609375 l 1
 1.041015625 798.19921875 l 1
1.041015625 530.701171875 m 1
 858.129882812 301.04296875 l 1
 1.041015625 301.04296875 l 1
 1.041015625 530.701171875 l 1
1.041015625 298.961914062 m 1
 858.129882812 298.961914062 l 1
 1.041015625 69.3037109375 l 1
 1.041015625 298.961914062 l 1
858.67578125 296.9609375 m 1
 1.041015625 -198.201171875 l 1
 1.041015625 67.1552734375 l 1
 858.67578125 296.9609375 l 1
EndSplineSet
EndChar

StartChar: K
Encoding: 75 75 13
Width: 866
Flags: HW
LayerCount: 2
Fore
SplineSet
634.141601562 432.684570312 m 1
 863.954101562 300.001953125 l 1
 6.296875 -195.166992188 l 1
 634.141601562 432.684570312 l 1
433.390625 548.580078125 m 1
 632.288085938 433.754882812 l 1
 4.8349609375 -193.706054688 l 1
 433.390625 548.580078125 l 1
232.69921875 664.454101562 m 1
 431.596679688 549.62109375 l 1
 3.041015625 -192.650390625 l 1
 232.69921875 664.454101562 l 1
1.041015625 798.19921875 m 1
 230.838867188 665.524414062 l 1
 1.041015625 -192.103515625 l 1
 1.041015625 798.19921875 l 1
EndSplineSet
EndChar

StartChar: L
Encoding: 76 76 14
Width: 866
Flags: HW
LayerCount: 2
Fore
SplineSet
1.041015625 792.1015625 m 1
 230.838867188 -65.5263671875 l 1
 1.041015625 -198.201171875 l 1
 1.041015625 792.1015625 l 1
3.041015625 792.647460938 m 1
 431.596679688 50.376953125 l 1
 232.69921875 -64.4560546875 l 1
 3.041015625 792.647460938 l 1
4.8349609375 793.703125 m 1
 632.288085938 166.25 l 1
 433.390625 51.4169921875 l 1
 4.8349609375 793.703125 l 1
6.296875 795.165039062 m 1
 863.954101562 300.001953125 l 1
 634.141601562 167.3203125 l 1
 6.296875 795.165039062 l 1
EndSplineSet
EndChar

StartChar: M
Encoding: 77 77 15
Width: 866
Flags: HW
LayerCount: 2
Fore
SplineSet
1.041015625 798.19921875 m 1
 862.145507812 301.04296875 l 1
 1.041015625 301.04296875 l 1
 1.041015625 798.19921875 l 1
1.041015625 298.961914062 m 1
 862.145507812 298.961914062 l 1
 1.041015625 -198.201171875 l 1
 1.041015625 298.961914062 l 1
EndSplineSet
EndChar

StartChar: N
Encoding: 78 78 16
Width: 866
Flags: HW
LayerCount: 2
Fore
SplineSet
433.390625 548.580078125 m 1
 863.954101562 300.001953125 l 1
 2.8349609375 -197.16796875 l 1
 433.390625 548.580078125 l 1
1.041015625 798.19921875 m 1
 431.596679688 549.62109375 l 1
 1.041015625 -196.119140625 l 1
 1.041015625 798.19921875 l 1
EndSplineSet
EndChar

StartChar: O
Encoding: 79 79 17
Width: 866
Flags: HW
LayerCount: 2
Fore
SplineSet
1.041015625 796.1171875 m 1
 431.596679688 50.376953125 l 1
 1.041015625 -198.201171875 l 1
 1.041015625 796.1171875 l 1
2.8349609375 797.165039062 m 1
 863.954101562 300.001953125 l 1
 433.390625 51.4169921875 l 1
 2.8349609375 797.165039062 l 1
EndSplineSet
EndChar

StartChar: P
Encoding: 80 80 18
Width: 866
Flags: HW
LayerCount: 2
Fore
SplineSet
364.982421875 432.174804688 m 1
 364.982421875 167.830078125 l 1
 136.047851562 300.001953125 l 1
 364.982421875 432.174804688 l 1
1.041015625 798.19921875 m 1
 431.596679688 549.62109375 l 1
 365.263671875 434.736328125 l 1
 133.701171875 301.04296875 l 1
 1.041015625 301.04296875 l 1
 1.041015625 798.19921875 l 1
433.390625 548.580078125 m 1
 863.954101562 300.001953125 l 1
 433.390625 51.4169921875 l 1
 367.064453125 166.301757812 l 1
 367.064453125 433.703125 l 1
 433.390625 548.580078125 l 1
1.041015625 298.961914062 m 1
 133.701171875 298.961914062 l 1
 365.263671875 165.268554688 l 1
 431.596679688 50.376953125 l 1
 1.041015625 -198.201171875 l 1
 1.041015625 298.961914062 l 1
EndSplineSet
EndChar

StartChar: Q
Encoding: 81 81 19
Width: 866
Flags: HW
LayerCount: 2
Fore
SplineSet
217.543945312 423.19921875 m 1
 430.940429688 300.001953125 l 1
 217.543945312 176.798828125 l 1
 217.543945312 423.19921875 l 1
433.014648438 298.806640625 m 1
 647.443359375 174.997070312 l 1
 217.543945312 -73.1962890625 l 1
 217.543945312 174.399414062 l 1
 433.014648438 298.806640625 l 1
217.543945312 673.201171875 m 1
 647.443359375 425 l 1
 433.014648438 301.198242188 l 1
 217.543945312 425.59765625 l 1
 217.543945312 673.201171875 l 1
1.041015625 548.196289062 m 1
 215.462890625 424.40234375 l 1
 215.462890625 175.595703125 l 1
 1.041015625 51.80078125 l 1
 1.041015625 548.196289062 l 1
649.517578125 423.803710938 m 1
 863.954101562 300.001953125 l 1
 649.517578125 176.193359375 l 1
 435.088867188 300.001953125 l 1
 649.517578125 423.803710938 l 1
215.462890625 173.196289062 m 1
 215.462890625 -74.3994140625 l 1
 1.041015625 -198.201171875 l 1
 1.041015625 49.40234375 l 1
 215.462890625 173.196289062 l 1
1.041015625 798.19921875 m 1
 215.462890625 674.404296875 l 1
 215.462890625 426.80078125 l 1
 1.041015625 550.595703125 l 1
 1.041015625 798.19921875 l 1
EndSplineSet
EndChar

StartChar: R
Encoding: 82 82 20
Width: 866
Flags: HW
LayerCount: 2
Fore
SplineSet
650.55859375 423.19921875 m 1
 863.954101562 300.001953125 l 1
 650.55859375 176.798828125 l 1
 650.55859375 423.19921875 l 1
1.041015625 48.19921875 m 1
 214.428710938 -74.998046875 l 1
 1.041015625 -198.201171875 l 1
 1.041015625 48.19921875 l 1
1.041015625 798.19921875 m 1
 214.428710938 675.002929688 l 1
 1.041015625 551.798828125 l 1
 1.041015625 798.19921875 l 1
216.50390625 673.806640625 m 1
 648.4765625 424.40234375 l 1
 648.4765625 301.04296875 l 1
 289.274414062 301.04296875 l 1
 109.672851562 612.123046875 l 1
 216.50390625 673.806640625 l 1
289.274414062 298.961914062 m 1
 648.4765625 298.961914062 l 1
 648.4765625 175.595703125 l 1
 216.50390625 -73.8017578125 l 1
 109.672851562 -12.1259765625 l 1
 289.274414062 298.961914062 l 1
107.87890625 611.083007812 m 1
 287.48046875 300.001953125 l 1
 107.87890625 -11.0849609375 l 1
 1.041015625 50.59765625 l 1
 1.041015625 549.399414062 l 1
 107.87890625 611.083007812 l 1
EndSplineSet
EndChar

StartChar: S
Encoding: 83 83 21
Width: 866
Flags: HW
LayerCount: 2
Fore
SplineSet
1.041015625 796.1171875 m 1
 143.142578125 549.997070312 l 1
 1.041015625 303.885742188 l 1
 1.041015625 796.1171875 l 1
1.041015625 296.119140625 m 1
 143.142578125 50 l 1
 1.041015625 -196.119140625 l 1
 1.041015625 296.119140625 l 1
144.935546875 48.958984375 m 1
 429.131835938 48.958984375 l 1
 2.8349609375 -197.16796875 l 1
 144.935546875 48.958984375 l 1
577.950195312 298.961914062 m 1
 862.145507812 298.961914062 l 1
 435.848632812 52.8349609375 l 1
 577.950195312 298.961914062 l 1
2.8349609375 797.165039062 m 1
 429.131835938 551.038085938 l 1
 144.935546875 551.038085938 l 1
 2.8349609375 797.165039062 l 1
435.848632812 547.163085938 m 1
 862.145507812 301.04296875 l 1
 577.950195312 301.04296875 l 1
 435.848632812 547.163085938 l 1
144.935546875 548.95703125 m 1
 432.416015625 548.95703125 l 1
 576.15625 300.001953125 l 1
 432.416015625 51.041015625 l 1
 144.935546875 51.041015625 l 1
 1.1962890625 300.001953125 l 1
 144.935546875 548.95703125 l 1
EndSplineSet
EndChar

StartChar: T
Encoding: 84 84 22
Width: 866
Flags: HW
LayerCount: 2
Fore
SplineSet
130.947265625 573.19921875 m 1
 604.141601562 300.001953125 l 1
 130.947265625 26.798828125 l 1
 130.947265625 573.19921875 l 1
606.215820312 298.806640625 m 1
 734.047851562 225.001953125 l 1
 130.947265625 -123.201171875 l 1
 130.947265625 24.3994140625 l 1
 606.215820312 298.806640625 l 1
130.947265625 723.19921875 m 1
 734.047851562 375.001953125 l 1
 606.215820312 301.198242188 l 1
 130.947265625 575.59765625 l 1
 130.947265625 723.19921875 l 1
1.041015625 648.19921875 m 1
 128.865234375 574.40234375 l 1
 128.865234375 25.595703125 l 1
 1.041015625 -48.201171875 l 1
 1.041015625 648.19921875 l 1
736.122070312 373.806640625 m 1
 863.954101562 300.001953125 l 1
 736.122070312 226.198242188 l 1
 608.290039062 300.001953125 l 1
 736.122070312 373.806640625 l 1
128.865234375 23.1962890625 m 1
 128.865234375 -124.404296875 l 1
 1.041015625 -198.201171875 l 1
 1.041015625 -50.6005859375 l 1
 128.865234375 23.1962890625 l 1
1.041015625 798.19921875 m 1
 128.865234375 724.40234375 l 1
 128.865234375 576.80078125 l 1
 1.041015625 650.59765625 l 1
 1.041015625 798.19921875 l 1
EndSplineSet
EndChar

StartChar: U
Encoding: 85 85 23
Width: 866
Flags: HW
LayerCount: 2
Fore
SplineSet
359.80078125 423.19921875 m 1
 359.80078125 176.798828125 l 1
 146.412109375 300.001953125 l 1
 359.80078125 423.19921875 l 1
2.1552734375 796.264648438 m 1
 359.180664062 425.236328125 l 1
 144.965820312 301.567382812 l 1
 2.1552734375 796.264648438 l 1
361.8828125 423.678710938 m 1
 861.717773438 300.001953125 l 1
 361.8828125 176.319335938 l 1
 361.8828125 423.678710938 l 1
144.965820312 298.4375 m 1
 359.180664062 174.76171875 l 1
 2.1552734375 -196.267578125 l 1
 144.965820312 298.4375 l 1
859.163085938 297.234375 m 1
 5.82421875 -195.440429688 l 1
 361.380859375 174.067382812 l 1
 859.163085938 297.234375 l 1
1.041015625 792.655273438 m 1
 143.260742188 300.001953125 l 1
 1.041015625 -192.657226562 l 1
 1.041015625 792.655273438 l 1
5.82421875 795.438476562 m 1
 859.163085938 302.770507812 l 1
 361.380859375 425.9296875 l 1
 5.82421875 795.438476562 l 1
EndSplineSet
EndChar

StartChar: V
Encoding: 86 86 24
Width: 866
Flags: HW
LayerCount: 2
Fore
SplineSet
2.1552734375 796.264648438 m 1
 359.556640625 424.844726562 l 1
 288.078125 301.04296875 l 1
 145.120117188 301.04296875 l 1
 2.1552734375 796.264648438 l 1
361.350585938 423.803710938 m 1
 861.717773438 300.001953125 l 1
 361.350585938 176.193359375 l 1
 289.872070312 300.001953125 l 1
 361.350585938 423.803710938 l 1
145.120117188 298.961914062 m 1
 288.078125 298.961914062 l 1
 359.556640625 175.15234375 l 1
 2.1552734375 -196.267578125 l 1
 145.120117188 298.961914062 l 1
859.163085938 297.234375 m 1
 5.82421875 -195.440429688 l 1
 361.380859375 174.067382812 l 1
 859.163085938 297.234375 l 1
1.041015625 792.655273438 m 1
 143.260742188 300.001953125 l 1
 1.041015625 -192.657226562 l 1
 1.041015625 792.655273438 l 1
5.82421875 795.438476562 m 1
 859.163085938 302.770507812 l 1
 361.380859375 425.9296875 l 1
 5.82421875 795.438476562 l 1
EndSplineSet
EndChar

StartChar: X
Encoding: 88 88 25
Width: 866
Flags: HW
LayerCount: 2
Fore
SplineSet
174.249023438 498.19921875 m 1
 517.543945312 300.001953125 l 1
 174.249023438 101.798828125 l 1
 174.249023438 498.19921875 l 1
1.041015625 796.1171875 m 1
 172.16796875 499.7265625 l 1
 172.16796875 100.270507812 l 1
 1.041015625 -196.119140625 l 1
 1.041015625 796.1171875 l 1
2.8349609375 797.165039062 m 1
 862.145507812 301.04296875 l 1
 519.891601562 301.04296875 l 1
 173.96875 500.760742188 l 1
 2.8349609375 797.165039062 l 1
519.891601562 298.961914062 m 1
 862.145507812 298.961914062 l 1
 2.8349609375 -197.16796875 l 1
 173.96875 99.2373046875 l 1
 519.891601562 298.961914062 l 1
EndSplineSet
EndChar

StartChar: Y
Encoding: 89 89 26
Width: 866
Flags: HW
LayerCount: 2
Fore
SplineSet
598.346679688 298.961914062 m 1
 862.145507812 298.961914062 l 1
 2.8349609375 -197.16796875 l 1
 134.734375 31.2939453125 l 1
 598.346679688 298.961914062 l 1
2.8349609375 797.165039062 m 1
 862.145507812 301.04296875 l 1
 598.346679688 301.04296875 l 1
 134.734375 568.7109375 l 1
 2.8349609375 797.165039062 l 1
1.041015625 796.1171875 m 1
 132.932617188 567.676757812 l 1
 132.932617188 32.328125 l 1
 1.041015625 -196.119140625 l 1
 1.041015625 796.1171875 l 1
135.014648438 566.149414062 m 1
 595.999023438 300.001953125 l 1
 135.014648438 33.85546875 l 1
 135.014648438 566.149414062 l 1
EndSplineSet
EndChar

StartChar: c
Encoding: 99 99 28
Width: 866
Flags: HW
LayerCount: 2
Fore
SplineSet
577.950195312 298.961914062 m 1
 864.987304688 298.961914062 l 1
 864.987304688 -198.201171875 l 1
 434.431640625 50.376953125 l 1
 577.950195312 298.961914062 l 1
432.637695312 548.580078125 m 1
 576.15625 300.001953125 l 1
 432.637695312 51.4169921875 l 1
 2.07421875 300.001953125 l 1
 432.637695312 548.580078125 l 1
864.987304688 798.19921875 m 1
 864.987304688 301.04296875 l 1
 577.950195312 301.04296875 l 1
 434.431640625 549.62109375 l 1
 864.987304688 798.19921875 l 1
EndSplineSet
EndChar

StartChar: d
Encoding: 100 100 29
Width: 866
Flags: HW
LayerCount: 2
Fore
SplineSet
864.987304688 464.862304688 m 1
 864.987304688 -198.201171875 l 1
 578.393554688 -32.736328125 l 1
 578.393554688 299.404296875 l 1
 864.987304688 464.862304688 l 1
864.987304688 798.19921875 m 1
 864.987304688 467.26171875 l 1
 577.352539062 301.198242188 l 1
 290.750976562 466.663085938 l 1
 864.987304688 798.19921875 l 1
288.67578125 465.467773438 m 1
 576.311523438 299.404296875 l 1
 576.311523438 -31.533203125 l 1
 2.07421875 300.001953125 l 1
 288.67578125 465.467773438 l 1
EndSplineSet
EndChar

StartChar: e
Encoding: 101 101 30
Width: 866
Flags: HW
LayerCount: 2
Fore
SplineSet
288.67578125 465.467773438 m 1
 575.278320312 300.001953125 l 1
 288.67578125 134.530273438 l 1
 2.07421875 300.001953125 l 1
 288.67578125 465.467773438 l 1
578.393554688 298.201171875 m 1
 864.987304688 132.736328125 l 1
 864.987304688 -198.201171875 l 1
 578.393554688 -32.736328125 l 1
 578.393554688 298.201171875 l 1
864.987304688 798.19921875 m 1
 864.987304688 467.26171875 l 1
 578.393554688 301.803710938 l 1
 578.393554688 632.733398438 l 1
 864.987304688 798.19921875 l 1
576.311523438 631.530273438 m 1
 576.311523438 301.803710938 l 1
 290.750976562 466.663085938 l 1
 576.311523438 631.530273438 l 1
576.311523438 298.201171875 m 1
 576.311523438 -31.533203125 l 1
 290.750976562 133.333984375 l 1
 576.311523438 298.201171875 l 1
864.987304688 464.862304688 m 1
 864.987304688 135.135742188 l 1
 579.426757812 300.001953125 l 1
 864.987304688 464.862304688 l 1
EndSplineSet
EndChar

StartChar: f
Encoding: 102 102 31
Width: 866
Flags: HW
LayerCount: 2
Fore
SplineSet
864.987304688 797.497070312 m 1
 864.987304688 -197.5 l 1
 367.485351562 300.001953125 l 1
 864.987304688 797.497070312 l 1
859.731445312 795.165039062 m 1
 366.0234375 301.463867188 l 1
 233.732421875 433.754882812 l 1
 859.731445312 795.165039062 l 1
366.0234375 298.541015625 m 1
 859.731445312 -195.166992188 l 1
 233.732421875 166.25 l 1
 366.0234375 298.541015625 l 1
231.879882812 432.684570312 m 1
 364.561523438 300.001953125 l 1
 231.879882812 167.3203125 l 1
 2.07421875 300.001953125 l 1
 231.879882812 432.684570312 l 1
EndSplineSet
EndChar

StartChar: g
Encoding: 103 103 32
Width: 866
Flags: HW
LayerCount: 2
Fore
SplineSet
864.375 797.844726562 m 1
 682.278320312 118.260742188 l 1
 2.6865234375 300.356445312 l 1
 864.375 797.844726562 l 1
7.3525390625 296.9609375 m 1
 681.739257812 116.259765625 l 1
 633.322265625 -64.4560546875 l 1
 7.3525390625 296.9609375 l 1
864.987304688 792.1015625 m 1
 864.987304688 69.3037109375 l 1
 684.279296875 117.721679688 l 1
 864.987304688 792.1015625 l 1
683.740234375 115.720703125 m 1
 864.987304688 67.1552734375 l 1
 864.987304688 -198.201171875 l 1
 635.181640625 -65.5263671875 l 1
 683.740234375 115.720703125 l 1
EndSplineSet
EndChar

StartChar: h
Encoding: 104 104 33
Width: 866
Flags: HW
LayerCount: 2
Fore
SplineSet
682.278320312 481.744140625 m 1
 864.375 -197.846679688 l 1
 2.6865234375 299.6484375 l 1
 682.278320312 481.744140625 l 1
864.987304688 530.701171875 m 1
 864.987304688 -192.103515625 l 1
 684.279296875 482.283203125 l 1
 864.987304688 530.701171875 l 1
633.322265625 664.454101562 m 1
 681.739257812 483.745117188 l 1
 7.3525390625 303.043945312 l 1
 633.322265625 664.454101562 l 1
864.987304688 798.19921875 m 1
 864.987304688 532.849609375 l 1
 683.740234375 484.284179688 l 1
 635.181640625 665.524414062 l 1
 864.987304688 798.19921875 l 1
EndSplineSet
EndChar

StartChar: i
Encoding: 105 105 34
Width: 866
Flags: HW
LayerCount: 2
Fore
SplineSet
864.987304688 798.19921875 m 1
 864.987304688 135.135742188 l 1
 578.393554688 300.600585938 l 1
 578.393554688 632.733398438 l 1
 864.987304688 798.19921875 l 1
577.352539062 298.806640625 m 1
 864.987304688 132.736328125 l 1
 864.987304688 -198.201171875 l 1
 290.750976562 133.333984375 l 1
 577.352539062 298.806640625 l 1
576.311523438 631.530273438 m 1
 576.311523438 300.600585938 l 1
 288.67578125 134.530273438 l 1
 2.07421875 300.001953125 l 1
 576.311523438 631.530273438 l 1
EndSplineSet
EndChar

StartChar: j
Encoding: 106 106 35
Width: 866
Flags: HW
LayerCount: 2
Fore
SplineSet
864.987304688 798.19921875 m 1
 864.987304688 532.849609375 l 1
 7.3525390625 303.043945312 l 1
 864.987304688 798.19921875 l 1
864.987304688 530.701171875 m 1
 864.987304688 301.04296875 l 1
 7.8984375 301.04296875 l 1
 864.987304688 530.701171875 l 1
7.8984375 298.961914062 m 1
 864.987304688 298.961914062 l 1
 864.987304688 69.3037109375 l 1
 7.8984375 298.961914062 l 1
7.3525390625 296.9609375 m 1
 864.987304688 67.1552734375 l 1
 864.987304688 -198.201171875 l 1
 7.3525390625 296.9609375 l 1
EndSplineSet
EndChar

StartChar: k
Encoding: 107 107 36
Width: 866
Flags: HW
LayerCount: 2
Fore
SplineSet
231.879882812 432.684570312 m 1
 859.731445312 -195.166992188 l 1
 2.07421875 300.001953125 l 1
 231.879882812 432.684570312 l 1
432.637695312 548.580078125 m 1
 861.193359375 -193.706054688 l 1
 233.732421875 433.754882812 l 1
 432.637695312 548.580078125 l 1
633.322265625 664.454101562 m 1
 862.987304688 -192.650390625 l 1
 434.431640625 549.62109375 l 1
 633.322265625 664.454101562 l 1
864.987304688 798.19921875 m 1
 864.987304688 -192.103515625 l 1
 635.181640625 665.524414062 l 1
 864.987304688 798.19921875 l 1
EndSplineSet
EndChar

StartChar: l
Encoding: 108 108 37
Width: 866
Flags: HW
LayerCount: 2
Fore
SplineSet
864.987304688 792.1015625 m 1
 864.987304688 -198.201171875 l 1
 635.181640625 -65.5263671875 l 1
 864.987304688 792.1015625 l 1
862.987304688 792.647460938 m 1
 633.322265625 -64.4560546875 l 1
 434.431640625 50.376953125 l 1
 862.987304688 792.647460938 l 1
861.193359375 793.703125 m 1
 432.637695312 51.4169921875 l 1
 233.732421875 166.25 l 1
 861.193359375 793.703125 l 1
859.731445312 795.165039062 m 1
 231.879882812 167.3203125 l 1
 2.07421875 300.001953125 l 1
 859.731445312 795.165039062 l 1
EndSplineSet
EndChar

StartChar: m
Encoding: 109 109 38
Width: 866
Flags: HW
LayerCount: 2
Fore
SplineSet
864.987304688 798.19921875 m 1
 864.987304688 301.04296875 l 1
 3.8828125 301.04296875 l 1
 864.987304688 798.19921875 l 1
3.8828125 298.961914062 m 1
 864.987304688 298.961914062 l 1
 864.987304688 -198.201171875 l 1
 3.8828125 298.961914062 l 1
EndSplineSet
EndChar

StartChar: n
Encoding: 110 110 39
Width: 866
Flags: HW
LayerCount: 2
Fore
SplineSet
432.637695312 548.580078125 m 1
 863.194335938 -197.16796875 l 1
 2.07421875 300.001953125 l 1
 432.637695312 548.580078125 l 1
864.987304688 798.19921875 m 1
 864.987304688 -196.119140625 l 1
 434.431640625 549.62109375 l 1
 864.987304688 798.19921875 l 1
EndSplineSet
EndChar

StartChar: o
Encoding: 111 111 40
Width: 866
Flags: HW
LayerCount: 2
Fore
SplineSet
864.987304688 796.1171875 m 1
 864.987304688 -198.201171875 l 1
 434.431640625 50.376953125 l 1
 864.987304688 796.1171875 l 1
863.194335938 797.165039062 m 1
 432.637695312 51.4169921875 l 1
 2.07421875 300.001953125 l 1
 863.194335938 797.165039062 l 1
EndSplineSet
EndChar

StartChar: p
Encoding: 112 112 41
Width: 866
Flags: HW
LayerCount: 2
Fore
SplineSet
501.038085938 432.174804688 m 1
 729.97265625 300.001953125 l 1
 501.038085938 167.830078125 l 1
 501.038085938 432.174804688 l 1
864.987304688 798.19921875 m 1
 864.987304688 301.04296875 l 1
 732.3203125 301.04296875 l 1
 500.7578125 434.736328125 l 1
 434.431640625 549.62109375 l 1
 864.987304688 798.19921875 l 1
432.637695312 548.580078125 m 1
 498.95703125 433.703125 l 1
 498.95703125 166.301757812 l 1
 432.637695312 51.4169921875 l 1
 2.07421875 300.001953125 l 1
 432.637695312 548.580078125 l 1
732.3203125 298.961914062 m 1
 864.987304688 298.961914062 l 1
 864.987304688 -198.201171875 l 1
 434.431640625 50.376953125 l 1
 500.7578125 165.268554688 l 1
 732.3203125 298.961914062 l 1
EndSplineSet
EndChar

StartChar: q
Encoding: 113 113 42
Width: 866
Flags: HW
LayerCount: 2
Fore
SplineSet
648.4765625 423.19921875 m 1
 648.4765625 176.798828125 l 1
 435.088867188 300.001953125 l 1
 648.4765625 423.19921875 l 1
433.014648438 298.806640625 m 1
 648.4765625 174.399414062 l 1
 648.4765625 -73.1962890625 l 1
 218.578125 174.997070312 l 1
 433.014648438 298.806640625 l 1
648.4765625 673.201171875 m 1
 648.4765625 425.59765625 l 1
 433.014648438 301.198242188 l 1
 218.578125 425 l 1
 648.4765625 673.201171875 l 1
864.987304688 548.196289062 m 1
 864.987304688 51.80078125 l 1
 650.55859375 175.595703125 l 1
 650.55859375 424.40234375 l 1
 864.987304688 548.196289062 l 1
216.50390625 423.803710938 m 1
 430.940429688 300.001953125 l 1
 216.50390625 176.193359375 l 1
 2.07421875 300.001953125 l 1
 216.50390625 423.803710938 l 1
650.55859375 173.196289062 m 1
 864.987304688 49.40234375 l 1
 864.987304688 -198.201171875 l 1
 650.55859375 -74.3994140625 l 1
 650.55859375 173.196289062 l 1
864.987304688 798.19921875 m 1
 864.987304688 550.595703125 l 1
 650.55859375 426.80078125 l 1
 650.55859375 674.404296875 l 1
 864.987304688 798.19921875 l 1
EndSplineSet
EndChar

StartChar: r
Encoding: 114 114 43
Width: 866
Flags: HW
LayerCount: 2
Fore
SplineSet
215.462890625 423.19921875 m 1
 215.462890625 176.798828125 l 1
 2.07421875 300.001953125 l 1
 215.462890625 423.19921875 l 1
864.987304688 48.19921875 m 1
 864.987304688 -198.201171875 l 1
 651.591796875 -74.998046875 l 1
 864.987304688 48.19921875 l 1
864.987304688 798.19921875 m 1
 864.987304688 551.798828125 l 1
 651.591796875 675.002929688 l 1
 864.987304688 798.19921875 l 1
649.517578125 673.806640625 m 1
 756.35546875 612.123046875 l 1
 576.754882812 301.04296875 l 1
 217.543945312 301.04296875 l 1
 217.543945312 424.40234375 l 1
 649.517578125 673.806640625 l 1
217.543945312 298.961914062 m 1
 576.754882812 298.961914062 l 1
 756.35546875 -12.1259765625 l 1
 649.517578125 -73.8017578125 l 1
 217.543945312 175.595703125 l 1
 217.543945312 298.961914062 l 1
758.149414062 611.083007812 m 1
 864.987304688 549.399414062 l 1
 864.987304688 50.59765625 l 1
 758.149414062 -11.0849609375 l 1
 578.547851562 300.001953125 l 1
 758.149414062 611.083007812 l 1
EndSplineSet
EndChar

StartChar: s
Encoding: 115 115 44
Width: 866
Flags: HW
LayerCount: 2
Fore
SplineSet
864.987304688 796.1171875 m 1
 864.987304688 303.885742188 l 1
 722.88671875 549.997070312 l 1
 864.987304688 796.1171875 l 1
864.987304688 296.119140625 m 1
 864.987304688 -196.119140625 l 1
 722.88671875 50 l 1
 864.987304688 296.119140625 l 1
436.897460938 48.958984375 m 1
 721.092773438 48.958984375 l 1
 863.194335938 -197.16796875 l 1
 436.897460938 48.958984375 l 1
3.8828125 298.961914062 m 1
 288.078125 298.961914062 l 1
 430.1796875 52.8349609375 l 1
 3.8828125 298.961914062 l 1
863.194335938 797.165039062 m 1
 721.092773438 551.038085938 l 1
 436.897460938 551.038085938 l 1
 863.194335938 797.165039062 l 1
430.1796875 547.163085938 m 1
 288.078125 301.04296875 l 1
 3.8828125 301.04296875 l 1
 430.1796875 547.163085938 l 1
433.612304688 548.95703125 m 1
 721.092773438 548.95703125 l 1
 864.833007812 300.001953125 l 1
 721.092773438 51.041015625 l 1
 433.612304688 51.041015625 l 1
 289.872070312 300.001953125 l 1
 433.612304688 548.95703125 l 1
EndSplineSet
EndChar

StartChar: t
Encoding: 116 116 45
Width: 866
Flags: HW
LayerCount: 2
Fore
SplineSet
735.081054688 573.19921875 m 1
 735.081054688 26.798828125 l 1
 261.879882812 300.001953125 l 1
 735.081054688 573.19921875 l 1
259.805664062 298.806640625 m 1
 735.081054688 24.3994140625 l 1
 735.081054688 -123.201171875 l 1
 131.98046875 225.001953125 l 1
 259.805664062 298.806640625 l 1
735.081054688 723.19921875 m 1
 735.081054688 575.59765625 l 1
 259.805664062 301.198242188 l 1
 131.98046875 375.001953125 l 1
 735.081054688 723.19921875 l 1
864.987304688 648.19921875 m 1
 864.987304688 -48.201171875 l 1
 737.163085938 25.595703125 l 1
 737.163085938 574.40234375 l 1
 864.987304688 648.19921875 l 1
129.90625 373.806640625 m 1
 257.731445312 300.001953125 l 1
 129.90625 226.198242188 l 1
 2.07421875 300.001953125 l 1
 129.90625 373.806640625 l 1
737.163085938 23.1962890625 m 1
 864.987304688 -50.6005859375 l 1
 864.987304688 -198.201171875 l 1
 737.163085938 -124.404296875 l 1
 737.163085938 23.1962890625 l 1
864.987304688 798.19921875 m 1
 864.987304688 650.59765625 l 1
 737.163085938 576.80078125 l 1
 737.163085938 724.40234375 l 1
 864.987304688 798.19921875 l 1
EndSplineSet
EndChar

StartChar: u
Encoding: 117 117 46
Width: 866
Flags: HW
LayerCount: 2
Fore
SplineSet
506.220703125 423.19921875 m 1
 719.616210938 300.001953125 l 1
 506.220703125 176.798828125 l 1
 506.220703125 423.19921875 l 1
863.873046875 796.264648438 m 1
 721.063476562 301.567382812 l 1
 506.840820312 425.236328125 l 1
 863.873046875 796.264648438 l 1
504.138671875 423.678710938 m 1
 504.138671875 176.319335938 l 1
 4.310546875 300.001953125 l 1
 504.138671875 423.678710938 l 1
721.063476562 298.4375 m 1
 863.873046875 -196.267578125 l 1
 506.840820312 174.76171875 l 1
 721.063476562 298.4375 l 1
6.865234375 297.234375 m 1
 504.640625 174.067382812 l 1
 860.204101562 -195.440429688 l 1
 6.865234375 297.234375 l 1
864.987304688 792.655273438 m 1
 864.987304688 -192.657226562 l 1
 722.768554688 300.001953125 l 1
 864.987304688 792.655273438 l 1
860.204101562 795.438476562 m 1
 504.640625 425.9296875 l 1
 6.865234375 302.770507812 l 1
 860.204101562 795.438476562 l 1
EndSplineSet
EndChar

StartChar: v
Encoding: 118 118 47
Width: 866
Flags: HW
LayerCount: 2
Fore
SplineSet
863.873046875 796.264648438 m 1
 720.908203125 301.04296875 l 1
 577.950195312 301.04296875 l 1
 506.463867188 424.844726562 l 1
 863.873046875 796.264648438 l 1
504.669921875 423.803710938 m 1
 576.15625 300.001953125 l 1
 504.669921875 176.193359375 l 1
 4.310546875 300.001953125 l 1
 504.669921875 423.803710938 l 1
577.950195312 298.961914062 m 1
 720.908203125 298.961914062 l 1
 863.873046875 -196.267578125 l 1
 506.463867188 175.15234375 l 1
 577.950195312 298.961914062 l 1
6.865234375 297.234375 m 1
 504.640625 174.067382812 l 1
 860.204101562 -195.440429688 l 1
 6.865234375 297.234375 l 1
864.987304688 792.655273438 m 1
 864.987304688 -192.657226562 l 1
 722.768554688 300.001953125 l 1
 864.987304688 792.655273438 l 1
860.204101562 795.438476562 m 1
 504.640625 425.9296875 l 1
 6.865234375 302.770507812 l 1
 860.204101562 795.438476562 l 1
EndSplineSet
EndChar

StartChar: x
Encoding: 120 120 48
Width: 866
Flags: HW
LayerCount: 2
Fore
SplineSet
691.779296875 498.19921875 m 1
 691.779296875 101.798828125 l 1
 348.484375 300.001953125 l 1
 691.779296875 498.19921875 l 1
864.987304688 796.1171875 m 1
 864.987304688 -196.119140625 l 1
 693.860351562 100.270507812 l 1
 693.860351562 499.7265625 l 1
 864.987304688 796.1171875 l 1
863.194335938 797.165039062 m 1
 692.059570312 500.760742188 l 1
 346.13671875 301.04296875 l 1
 3.8828125 301.04296875 l 1
 863.194335938 797.165039062 l 1
3.8828125 298.961914062 m 1
 346.13671875 298.961914062 l 1
 692.059570312 99.2373046875 l 1
 863.194335938 -197.16796875 l 1
 3.8828125 298.961914062 l 1
EndSplineSet
EndChar

StartChar: y
Encoding: 121 121 49
Width: 866
Flags: HW
LayerCount: 2
Fore
SplineSet
3.8828125 298.961914062 m 1
 267.674804688 298.961914062 l 1
 731.287109375 31.2939453125 l 1
 863.194335938 -197.16796875 l 1
 3.8828125 298.961914062 l 1
863.194335938 797.165039062 m 1
 731.287109375 568.7109375 l 1
 267.674804688 301.04296875 l 1
 3.8828125 301.04296875 l 1
 863.194335938 797.165039062 l 1
864.987304688 796.1171875 m 1
 864.987304688 -196.119140625 l 1
 733.087890625 32.328125 l 1
 733.087890625 567.676757812 l 1
 864.987304688 796.1171875 l 1
731.006835938 566.149414062 m 1
 731.006835938 33.85546875 l 1
 270.022460938 300.001953125 l 1
 731.006835938 566.149414062 l 1
EndSplineSet
EndChar

StartChar: Odieresis
Encoding: 214 214 51
Width: 866
Flags: HW
LayerCount: 2
Fore
SplineSet
1.041015625 298.961914062 m 1
 862.145507812 298.961914062 l 1
 1.041015625 -198.201171875 l 1
 1.041015625 298.961914062 l 1
EndSplineSet
EndChar

StartChar: odieresis
Encoding: 246 246 52
Width: 866
Flags: HW
LayerCount: 2
Fore
SplineSet
3.8828125 298.961914062 m 1
 864.987304688 298.961914062 l 1
 864.987304688 -198.201171875 l 1
 3.8828125 298.961914062 l 1
EndSplineSet
EndChar

StartChar: Udieresis
Encoding: 220 220 53
Width: 866
Flags: HW
LayerCount: 2
Fore
SplineSet
1.041015625 798.19921875 m 1
 862.145507812 301.04296875 l 1
 1.041015625 301.04296875 l 1
 1.041015625 798.19921875 l 1
EndSplineSet
EndChar

StartChar: udieresis
Encoding: 252 252 54
Width: 866
Flags: HW
LayerCount: 2
Fore
SplineSet
864.987304688 798.19921875 m 1
 864.987304688 301.04296875 l 1
 3.8828125 301.04296875 l 1
 864.987304688 798.19921875 l 1
EndSplineSet
EndChar

StartChar: zero
Encoding: 48 48 55
Width: 1732
Flags: HW
LayerCount: 2
Fore
SplineSet
866.028320312 798.803710938 m 1
 1729.97558594 300.001953125 l 1
 866.028320312 -198.806640625 l 1
 2.07421875 300.001953125 l 1
 866.028320312 798.803710938 l 1
EndSplineSet
EndChar

StartChar: one
Encoding: 49 49 56
Width: 1732
Flags: HW
LayerCount: 2
Fore
SplineSet
3.8828125 298.961914062 m 1
 1728.16699219 298.961914062 l 1
 866.028320312 -198.806640625 l 1
 3.8828125 298.961914062 l 1
EndSplineSet
EndChar

StartChar: two
Encoding: 50 50 57
Width: 1732
Flags: HW
LayerCount: 2
Fore
SplineSet
866.028320312 798.803710938 m 1
 1728.16699219 301.04296875 l 1
 3.8828125 301.04296875 l 1
 866.028320312 798.803710938 l 1
EndSplineSet
EndChar

StartChar: three
Encoding: 51 51 58
Width: 1732
Flags: HW
LayerCount: 2
Fore
SplineSet
649.517578125 673.806640625 m 1
 863.954101562 549.997070312 l 1
 433.014648438 301.198242188 l 1
 218.578125 425 l 1
 649.517578125 673.806640625 l 1
866.028320312 798.803710938 m 1
 1080.45800781 675.002929688 l 1
 866.028320312 551.193359375 l 1
 651.591796875 675.002929688 l 1
 866.028320312 798.803710938 l 1
216.50390625 423.803710938 m 1
 430.940429688 300.001953125 l 1
 216.50390625 176.193359375 l 1
 2.07421875 300.001953125 l 1
 216.50390625 423.803710938 l 1
1299.03515625 298.806640625 m 1
 1513.47167969 174.997070312 l 1
 1082.53222656 -73.8017578125 l 1
 868.102539062 50 l 1
 1299.03515625 298.806640625 l 1
1515.54589844 423.803710938 m 1
 1729.97558594 300.001953125 l 1
 1515.54589844 176.193359375 l 1
 1301.109375 300.001953125 l 1
 1515.54589844 423.803710938 l 1
866.028320312 48.8037109375 m 1
 1080.45800781 -74.998046875 l 1
 866.028320312 -198.806640625 l 1
 651.591796875 -74.998046875 l 1
 866.028320312 48.8037109375 l 1
1082.53222656 673.806640625 m 1
 1513.47167969 425 l 1
 649.517578125 -73.8017578125 l 1
 218.578125 174.997070312 l 1
 1082.53222656 673.806640625 l 1
EndSplineSet
EndChar

StartChar: four
Encoding: 52 52 59
Width: 1732
Flags: HW
LayerCount: 2
Fore
SplineSet
1082.53222656 673.806640625 m 1
 1513.47167969 425 l 1
 1299.03515625 301.198242188 l 1
 868.102539062 549.997070312 l 1
 1082.53222656 673.806640625 l 1
866.028320312 798.803710938 m 1
 1080.45800781 675.002929688 l 1
 866.028320312 551.193359375 l 1
 651.591796875 675.002929688 l 1
 866.028320312 798.803710938 l 1
1515.54589844 423.803710938 m 1
 1729.97558594 300.001953125 l 1
 1515.54589844 176.193359375 l 1
 1301.109375 300.001953125 l 1
 1515.54589844 423.803710938 l 1
433.014648438 298.806640625 m 1
 863.954101562 50 l 1
 649.517578125 -73.8017578125 l 1
 218.578125 174.997070312 l 1
 433.014648438 298.806640625 l 1
216.50390625 423.803710938 m 1
 430.940429688 300.001953125 l 1
 216.50390625 176.193359375 l 1
 2.07421875 300.001953125 l 1
 216.50390625 423.803710938 l 1
866.028320312 48.8037109375 m 1
 1080.45800781 -74.998046875 l 1
 866.028320312 -198.806640625 l 1
 651.591796875 -74.998046875 l 1
 866.028320312 48.8037109375 l 1
649.517578125 673.806640625 m 1
 1513.47167969 174.997070312 l 1
 1082.53222656 -73.8017578125 l 1
 218.578125 425 l 1
 649.517578125 673.806640625 l 1
EndSplineSet
EndChar

StartChar: five
Encoding: 53 53 60
Width: 1732
Flags: HW
LayerCount: 2
Fore
SplineSet
649.517578125 673.806640625 m 1
 863.954101562 549.997070312 l 1
 433.014648438 301.198242188 l 1
 218.578125 425 l 1
 649.517578125 673.806640625 l 1
866.028320312 798.803710938 m 1
 1080.45800781 675.002929688 l 1
 866.028320312 551.193359375 l 1
 651.591796875 675.002929688 l 1
 866.028320312 798.803710938 l 1
216.50390625 423.803710938 m 1
 430.940429688 300.001953125 l 1
 216.50390625 176.193359375 l 1
 2.07421875 300.001953125 l 1
 216.50390625 423.803710938 l 1
1299.03515625 298.806640625 m 1
 1513.47167969 174.997070312 l 1
 1082.53222656 -73.8017578125 l 1
 868.102539062 50 l 1
 1299.03515625 298.806640625 l 1
1515.54589844 423.803710938 m 1
 1729.97558594 300.001953125 l 1
 1515.54589844 176.193359375 l 1
 1301.109375 300.001953125 l 1
 1515.54589844 423.803710938 l 1
866.028320312 48.8037109375 m 1
 1080.45800781 -74.998046875 l 1
 866.028320312 -198.806640625 l 1
 651.591796875 -74.998046875 l 1
 866.028320312 48.8037109375 l 1
1082.53222656 673.806640625 m 1
 1513.47167969 425 l 1
 1299.03515625 301.198242188 l 1
 868.102539062 549.997070312 l 1
 1082.53222656 673.806640625 l 1
433.014648438 298.806640625 m 1
 863.954101562 50 l 1
 649.517578125 -73.8017578125 l 1
 218.578125 174.997070312 l 1
 433.014648438 298.806640625 l 1
866.028320312 548.801757812 m 1
 1296.9609375 300.001953125 l 1
 866.028320312 51.1962890625 l 1
 435.088867188 300.001953125 l 1
 866.028320312 548.801757812 l 1
EndSplineSet
EndChar

StartChar: six
Encoding: 54 54 61
Width: 1732
Flags: HW
LayerCount: 2
Fore
SplineSet
866.028320312 798.803710938 m 1
 1080.45800781 675.002929688 l 1
 216.50390625 176.193359375 l 1
 2.07421875 300.001953125 l 1
 866.028320312 798.803710938 l 1
1082.53222656 673.806640625 m 1
 1296.9609375 549.997070312 l 1
 433.014648438 51.1962890625 l 1
 218.578125 174.997070312 l 1
 1082.53222656 673.806640625 l 1
1299.03515625 548.801757812 m 1
 1513.47167969 425 l 1
 649.517578125 -73.8017578125 l 1
 435.088867188 50 l 1
 1299.03515625 548.801757812 l 1
1515.54589844 423.803710938 m 1
 1729.97558594 300.001953125 l 1
 866.028320312 -198.806640625 l 1
 651.591796875 -74.998046875 l 1
 1515.54589844 423.803710938 l 1
EndSplineSet
EndChar

StartChar: seven
Encoding: 55 55 62
Width: 1732
Flags: HW
LayerCount: 2
Fore
SplineSet
866.028320312 798.803710938 m 1
 1729.97558594 300.001953125 l 1
 1515.54589844 176.193359375 l 1
 651.591796875 675.002929688 l 1
 866.028320312 798.803710938 l 1
649.517578125 673.806640625 m 1
 1513.47167969 174.997070312 l 1
 1299.03515625 51.1962890625 l 1
 435.088867188 549.997070312 l 1
 649.517578125 673.806640625 l 1
433.014648438 548.801757812 m 1
 1296.9609375 50 l 1
 1082.53222656 -73.8017578125 l 1
 218.578125 425 l 1
 433.014648438 548.801757812 l 1
216.50390625 423.803710938 m 1
 1080.45800781 -74.998046875 l 1
 866.028320312 -198.806640625 l 1
 2.07421875 300.001953125 l 1
 216.50390625 423.803710938 l 1
EndSplineSet
EndChar

StartChar: eight
Encoding: 56 56 63
Width: 1732
Flags: HW
LayerCount: 2
Fore
SplineSet
216.50390625 423.803710938 m 1
 430.940429688 300.001953125 l 1
 216.50390625 176.193359375 l 1
 2.07421875 300.001953125 l 1
 216.50390625 423.803710938 l 1
433.014648438 298.806640625 m 1
 647.443359375 174.997070312 l 1
 433.014648438 51.1962890625 l 1
 218.578125 174.997070312 l 1
 433.014648438 298.806640625 l 1
649.517578125 173.801757812 m 1
 863.954101562 50 l 1
 649.517578125 -73.8017578125 l 1
 435.088867188 50 l 1
 649.517578125 173.801757812 l 1
866.028320312 48.8037109375 m 1
 1080.45800781 -74.998046875 l 1
 866.028320312 -198.806640625 l 1
 651.591796875 -74.998046875 l 1
 866.028320312 48.8037109375 l 1
433.014648438 548.801757812 m 1
 647.443359375 425 l 1
 433.014648438 301.198242188 l 1
 218.578125 425 l 1
 433.014648438 548.801757812 l 1
649.517578125 423.803710938 m 1
 863.954101562 300.001953125 l 1
 649.517578125 176.193359375 l 1
 435.088867188 300.001953125 l 1
 649.517578125 423.803710938 l 1
866.028320312 298.806640625 m 1
 1080.45800781 174.997070312 l 1
 866.028320312 51.1962890625 l 1
 651.591796875 174.997070312 l 1
 866.028320312 298.806640625 l 1
1082.53222656 173.801757812 m 1
 1296.9609375 50 l 1
 1082.53222656 -73.8017578125 l 1
 868.102539062 50 l 1
 1082.53222656 173.801757812 l 1
649.517578125 673.806640625 m 1
 863.954101562 549.997070312 l 1
 649.517578125 426.196289062 l 1
 435.088867188 549.997070312 l 1
 649.517578125 673.806640625 l 1
866.028320312 548.801757812 m 1
 1080.45800781 425 l 1
 866.028320312 301.198242188 l 1
 651.591796875 425 l 1
 866.028320312 548.801757812 l 1
1082.53222656 423.803710938 m 1
 1296.9609375 300.001953125 l 1
 1082.53222656 176.193359375 l 1
 868.102539062 300.001953125 l 1
 1082.53222656 423.803710938 l 1
1299.03515625 298.806640625 m 1
 1513.47167969 174.997070312 l 1
 1299.03515625 51.1962890625 l 1
 1084.60644531 174.997070312 l 1
 1299.03515625 298.806640625 l 1
866.028320312 798.803710938 m 1
 1080.45800781 675.002929688 l 1
 866.028320312 551.193359375 l 1
 651.591796875 675.002929688 l 1
 866.028320312 798.803710938 l 1
1082.53222656 673.806640625 m 1
 1296.9609375 549.997070312 l 1
 1082.53222656 426.196289062 l 1
 868.102539062 549.997070312 l 1
 1082.53222656 673.806640625 l 1
1299.03515625 548.801757812 m 1
 1513.47167969 425 l 1
 1299.03515625 301.198242188 l 1
 1084.60644531 425 l 1
 1299.03515625 548.801757812 l 1
1515.54589844 423.803710938 m 1
 1729.97558594 300.001953125 l 1
 1515.54589844 176.193359375 l 1
 1301.109375 300.001953125 l 1
 1515.54589844 423.803710938 l 1
EndSplineSet
EndChar

StartChar: W
Encoding: 87 87 64
Width: 866
Flags: HW
LayerCount: 2
Fore
SplineSet
1.041015625 796.1171875 m 1
 107.952148438 610.197265625 161.338867188 455.072265625 161.338867188 299.995117188 c 0
 161.338867188 144.91796875 107.952148438 -10.19921875 1.041015625 -196.119140625 c 1
 1.041015625 796.1171875 l 1
2.841796875 797.158203125 m 1
 862.145507812 301.04296875 l 1
 647.682617188 301.416015625 486.64453125 332.736328125 352.344726562 410.2734375 c 0
 218.043945312 487.810546875 110.397460938 611.609375 2.841796875 797.158203125 c 1
862.145507812 298.961914062 m 1
 2.841796875 -197.16015625 l 1
 110.397460938 -11.6123046875 218.043945312 112.184570312 352.344726562 189.724609375 c 0
 486.64453125 267.262695312 647.682617188 298.588867188 862.145507812 298.961914062 c 1
33.01953125 742.8125 m 1
 72.814453125 678.7890625 172.638671875 511.624023438 351.303710938 408.471679688 c 0
 524.669921875 308.37890625 725.100585938 302.439453125 799.990234375 300.001953125 c 1
 724.6640625 297.55078125 519.33984375 288.541015625 351.303710938 191.525390625 c 0
 243.604492188 129.345703125 139.50390625 28.501953125 33.01953125 -142.815429688 c 1
 68.58984375 -76.2978515625 163.419921875 101.9609375 163.419921875 300.001953125 c 0
 163.419921875 440.06640625 128.102539062 565.0078125 33.01953125 742.8125 c 1
EndSplineSet
EndChar

StartChar: w
Encoding: 119 119 65
Width: 866
Flags: HW
LayerCount: 2
Fore
SplineSet
864.984375 796.1171875 m 1
 864.984375 -196.119140625 l 1
 758.073242188 -10.19921875 704.686523438 144.91796875 704.686523438 299.995117188 c 0
 704.686523438 455.072265625 758.073242188 610.197265625 864.984375 796.1171875 c 1
863.18359375 797.158203125 m 1
 755.627929688 611.609375 647.981445312 487.810546875 513.680664062 410.2734375 c 0
 379.380859375 332.736328125 218.342773438 301.416015625 3.8798828125 301.04296875 c 1
 863.18359375 797.158203125 l 1
3.8798828125 298.961914062 m 1
 218.342773438 298.588867188 379.380859375 267.262695312 513.680664062 189.724609375 c 0
 647.981445312 112.184570312 755.627929688 -11.6123046875 863.18359375 -197.16015625 c 1
 3.8798828125 298.961914062 l 1
833.005859375 742.8125 m 1
 737.922851562 565.0078125 702.60546875 440.06640625 702.60546875 300.001953125 c 0
 702.60546875 101.9609375 797.435546875 -76.2978515625 833.005859375 -142.815429688 c 1
 726.521484375 28.501953125 622.420898438 129.345703125 514.721679688 191.525390625 c 0
 346.685546875 288.541015625 141.361328125 297.55078125 66.03515625 300.001953125 c 1
 140.924804688 302.439453125 341.35546875 308.37890625 514.721679688 408.471679688 c 0
 693.38671875 511.624023438 793.2109375 678.7890625 833.005859375 742.8125 c 1
EndSplineSet
EndChar

StartChar: .notdef
Encoding: 1114112 -1 66
Width: 866
Flags: HW
LayerCount: 2
Fore
SplineSet
0 -123.62109375 m 1
 0 723.626953125 l 1
 366.869140625 300 l 1
 0 -123.62109375 l 1
799.87890625 -200 m 1
 66.14453125 -200 l 1
 433.01171875 223.623046875 l 1
 799.87890625 -200 l 1
499.158203125 300 m 1
 866.025390625 723.623046875 l 1
 866.025390625 -123.6171875 l 1
 499.158203125 300 l 1
66.140625 800 m 1
 799.880859375 800 l 1
 433.01171875 376.376953125 l 1
 66.140625 800 l 1
EndSplineSet
EndChar

StartChar: Alpha
Encoding: 913 913 75
Width: 1000
Flags: H
LayerCount: 2
Fore
SplineSet
2.8349609375 797.165039062 m 1
 633.2109375 433.215820312 l 1
 997.16796875 -197.16796875 l 1
 366.784179688 166.7890625 l 1
 2.8349609375 797.165039062 l 1
3.8828125 798.958984375 m 1
 997.5 798.958984375 l 1
 633.801757812 435.268554688 l 1
 3.8828125 798.958984375 l 1
998.961914062 797.497070312 m 1
 998.961914062 -196.119140625 l 1
 635.263671875 433.806640625 l 1
 998.961914062 797.497070312 l 1
1.041015625 796.1171875 m 1
 364.731445312 166.198242188 l 1
 1.041015625 -197.5 l 1
 1.041015625 796.1171875 l 1
366.193359375 164.736328125 m 1
 996.119140625 -198.961914062 l 1
 2.5029296875 -198.961914062 l 1
 366.193359375 164.736328125 l 1
EndSplineSet
EndChar

StartChar: alpha
Encoding: 945 945 76
Width: 1000
Flags: H
LayerCount: 2
Fore
SplineSet
997.16796875 797.165039062 m 1
 633.2109375 166.7890625 l 1
 2.8349609375 -197.16796875 l 1
 366.784179688 433.215820312 l 1
 997.16796875 797.165039062 l 1
2.5029296875 798.958984375 m 1
 996.119140625 798.958984375 l 1
 366.193359375 435.268554688 l 1
 2.5029296875 798.958984375 l 1
1.041015625 797.497070312 m 1
 364.731445312 433.806640625 l 1
 1.041015625 -196.119140625 l 1
 1.041015625 797.497070312 l 1
998.961914062 796.1171875 m 1
 998.961914062 -197.5 l 1
 635.263671875 166.198242188 l 1
 998.961914062 796.1171875 l 1
633.801757812 164.736328125 m 1
 997.5 -198.961914062 l 1
 3.8828125 -198.961914062 l 1
 633.801757812 164.736328125 l 1
EndSplineSet
EndChar
